<?xml version="1.0" encoding="UTF-8" standalone="no"?>
<!-- Created with Inkscape (http://www.inkscape.org/) -->

<svg
   xmlns:dc="http://purl.org/dc/elements/1.1/"
   xmlns:cc="http://creativecommons.org/ns#"
   xmlns:rdf="http://www.w3.org/1999/02/22-rdf-syntax-ns#"
   xmlns:svg="http://www.w3.org/2000/svg"
   xmlns="http://www.w3.org/2000/svg"
   xmlns:sodipodi="http://sodipodi.sourceforge.net/DTD/sodipodi-0.dtd"
   xmlns:inkscape="http://www.inkscape.org/namespaces/inkscape"
   width="134.27972mm"
   height="101.63256mm"
   viewBox="0 0 134.27972 101.63256"
   version="1.1"
   id="svg8"
   inkscape:version="0.92.4 (5da689c313, 2019-01-14)"
   sodipodi:docname="pt_3_0_30.svg"
   inkscape:export-filename="/home/schmid/Hygienekonzept/pt_3_0_30.png"
   inkscape:export-xdpi="300"
   inkscape:export-ydpi="300">
  <defs
     id="defs2" />
  <sodipodi:namedview
     id="base"
     pagecolor="#ffffff"
     bordercolor="#666666"
     borderopacity="1.0"
     inkscape:pageopacity="0.0"
     inkscape:pageshadow="2"
     inkscape:zoom="0.7"
     inkscape:cx="217.39695"
     inkscape:cy="-14.201236"
     inkscape:document-units="mm"
     inkscape:current-layer="layer1"
     showgrid="false"
     fit-margin-top="0"
     fit-margin-left="0"
     fit-margin-right="0"
     fit-margin-bottom="0"
     inkscape:window-width="1916"
     inkscape:window-height="1038"
     inkscape:window-x="1920"
     inkscape:window-y="40"
     inkscape:window-maximized="0" />
  <metadata
     id="metadata5">
    <rdf:RDF>
      <cc:Work
         rdf:about="">
        <dc:format>image/svg+xml</dc:format>
        <dc:type
           rdf:resource="http://purl.org/dc/dcmitype/StillImage" />
        <dc:title></dc:title>
      </cc:Work>
    </rdf:RDF>
  </metadata>
  <g
     inkscape:label="Layer 1"
     inkscape:groupmode="layer"
     id="layer1"
     transform="translate(-32.758333,-36.64126)">
    <rect
       style="opacity:1;fill:#ffffff;fill-opacity:1;fill-rule:nonzero;stroke:#000000;stroke-width:0.44939929;stroke-linecap:round;stroke-linejoin:round;stroke-miterlimit:4;stroke-dasharray:none;stroke-dashoffset:20;stroke-opacity:1"
       id="rect4465"
       width="133.83032"
       height="101.18316"
       x="-166.81335"
       y="-138.04912"
       transform="scale(-1)"
       inkscape:export-xdpi="300"
       inkscape:export-ydpi="300" />
    <rect
       style="opacity:1;fill:#969696;fill-opacity:1;fill-rule:nonzero;stroke:none;stroke-width:0.48510244;stroke-linecap:round;stroke-linejoin:round;stroke-miterlimit:4;stroke-dasharray:none;stroke-dashoffset:20;stroke-opacity:1"
       id="rect4374"
       width="129.59572"
       height="97.213089"
       x="-164.68475"
       y="-135.94308"
       transform="scale(-1)"
       inkscape:export-xdpi="300"
       inkscape:export-ydpi="300" />
    <rect
       style="opacity:1;fill:#c8c8c8;fill-opacity:1;fill-rule:nonzero;stroke:none;stroke-width:0.5053798;stroke-linecap:round;stroke-linejoin:round;stroke-miterlimit:4;stroke-dasharray:none;stroke-dashoffset:20;stroke-opacity:1"
       id="rect4376"
       width="123.71161"
       height="90.810631"
       x="-161.65193"
       y="-132.92715"
       transform="scale(-1)"
       inkscape:export-xdpi="300"
       inkscape:export-ydpi="300" />
    <rect
       y="-99.311729"
       x="-164.86212"
       height="26.502304"
       width="3.8824236"
       id="rect4442"
       style="opacity:1;fill:#ca0000;fill-opacity:1;stroke:none;stroke-width:1.51327896;stroke-linecap:round;stroke-linejoin:bevel;stroke-miterlimit:4;stroke-dasharray:none;stroke-dashoffset:0;stroke-opacity:1"
       inkscape:export-xdpi="300"
       inkscape:export-ydpi="300"
       transform="scale(-1)" />
    <rect
       style="opacity:1;fill:#00abff;fill-opacity:1;fill-rule:nonzero;stroke:none;stroke-width:1.54931509;stroke-linecap:round;stroke-linejoin:bevel;stroke-miterlimit:4;stroke-dasharray:3.09863063, 1.54931531;stroke-dashoffset:20;stroke-opacity:1"
       id="rect5053"
       width="3.395607"
       height="90.810623"
       x="-38.469486"
       y="-132.92715"
       inkscape:export-xdpi="300"
       inkscape:export-ydpi="300"
       transform="scale(-1)" />
    <rect
       inkscape:export-ydpi="300"
       inkscape:export-xdpi="300"
       y="-67.457825"
       x="-89.629379"
       height="25.341303"
       width="51.159893"
       id="rect4404"
       style="opacity:1;fill:#68094f;fill-opacity:1;fill-rule:nonzero;stroke:none;stroke-width:0.8648721;stroke-linecap:round;stroke-linejoin:bevel;stroke-miterlimit:4;stroke-dasharray:1.7297443, 0.86487215;stroke-dashoffset:20;stroke-opacity:1"
       transform="scale(-1)" />
    <rect
       transform="scale(-1)"
       style="opacity:1;fill:#68094f;fill-opacity:1;fill-rule:nonzero;stroke:none;stroke-width:0.8648721;stroke-linecap:round;stroke-linejoin:bevel;stroke-miterlimit:4;stroke-dasharray:1.7297443, 0.86487215;stroke-dashoffset:20;stroke-opacity:1"
       id="rect2651"
       width="51.159893"
       height="25.341303"
       x="-89.629379"
       y="-133.07454"
       inkscape:export-xdpi="300"
       inkscape:export-ydpi="300" />
    <circle
       style="opacity:1;fill:#c700a4;fill-opacity:1;fill-rule:nonzero;stroke:none;stroke-width:0.61038244;stroke-linecap:round;stroke-linejoin:bevel;stroke-miterlimit:4;stroke-dasharray:1.22076492, 0.61038246;stroke-dashoffset:20;stroke-opacity:1"
       id="circle4626"
       cx="-69.890778"
       cy="62.617245"
       r="6.9529915"
       inkscape:export-xdpi="300"
       inkscape:export-ydpi="300"
       transform="rotate(-90)" />
    <text
       xml:space="preserve"
       style="font-style:normal;font-weight:normal;font-size:4.60181856px;line-height:1.25;font-family:sans-serif;letter-spacing:0px;word-spacing:0px;fill:#000000;fill-opacity:1;stroke:none;stroke-width:0.14380683"
       x="59.998516"
       y="72.751465"
       id="text4630"
       inkscape:export-xdpi="300"
       inkscape:export-ydpi="300"><tspan
         sodipodi:role="line"
         id="tspan4628"
         x="59.998516"
         y="72.751465"
         style="font-size:8.89134312px;fill:#ffffff;fill-opacity:1;stroke-width:0.14380683">1</tspan></text>
    <g
       transform="matrix(0.02844072,0,0,0.02844072,112.58938,67.159787)"
       id="g4790"
       inkscape:export-xdpi="300"
       inkscape:export-ydpi="300">
      <circle
         r="295.71429"
         cy="117.60004"
         cx="1304.8772"
         id="circle4774"
         style="fill:#004488;fill-opacity:1;stroke:#000000;stroke-width:12.09448814;stroke-miterlimit:4;stroke-dasharray:none;stroke-opacity:1"
         inkscape:export-xdpi="300"
         inkscape:export-ydpi="300" />
      <circle
         style="fill:#004488;fill-opacity:1;stroke:#ffffff;stroke-width:6.42519712;stroke-miterlimit:4;stroke-dasharray:none;stroke-opacity:1"
         id="circle4776"
         cx="1304.8772"
         cy="117.60004"
         r="295.71429"
         inkscape:export-xdpi="300"
         inkscape:export-ydpi="300" />
      <path
         style="fill:#ffffff;fill-opacity:1;stroke:none;stroke-width:4.45284319px;stroke-linecap:butt;stroke-linejoin:miter;stroke-opacity:1"
         d="m 1552.5961,142.82822 -0.2351,78.02079 c 0,0 -39.0858,-8.27713 -45.7341,-11.56717 -7.2725,-2.45764 -34.4669,-16.79648 -37.551,-14.70864 -3.0838,2.0868 -37.9229,5.10947 -45.7105,2.6908 -3.894,-1.20903 -28.7961,-12.25527 -55.3026,-19.35961 -26.5065,-7.1043 -49.5794,-16.70683 -52.3606,-22.79864 -4.2975,-5.89077 0.7631,-12.61969 7.2037,-11.39085 6.4402,1.22827 53.3735,12.89764 72.0674,9.9623 15.8163,-2.5025 39.6367,0.2487 45.4315,-5.20614 -3.3591,-9.19949 -29.139,-4.89918 -32.8124,-5.79621 -6.1696,0.14211 -9.6242,-2.86726 -9.7244,-6.59267 -0.1009,-3.72506 -2.4856,-5.75883 14.8857,-9.8219 19.8679,-4.68646 28.7948,-4.30741 38.9277,-4.5482 14.6061,-0.65655 16.9084,5.10119 33.4227,10.53925 11.4681,6.74868 16.5,5.05175 28.7668,6.73542 11.8505,1.26788 11.7858,0.0265 17.6451,0.57218 7.0799,0.66138 21.0801,3.26948 21.0801,3.26948 z"
         id="path4778"
         inkscape:connector-curvature="0"
         sodipodi:nodetypes="cccccsccccccccccacc" />
      <path
         style="fill:#ffffff;fill-opacity:1;stroke:#004488;stroke-width:1.59404933px;stroke-linecap:butt;stroke-linejoin:miter;stroke-opacity:1"
         d="m 1107.6494,-71.147903 h 184.1766 c 0,0 36.4625,14.93897 50.0988,28.46518 5.9157,5.86807 12.5247,21.63354 12.5247,21.63354 h -23.9108 c 0,0 -10.2086,-9.54613 -16.4262,-12.4864 -10.4298,-4.93226 -22.2138,-6.66463 -33.6725,-8.00854 -16.2089,-1.90102 -48.9601,0 -48.9601,0 l -12.5247,28.46518 h -43.267 l -12.5247,-26.18797 h -58.9299 z"
         id="path4780"
         inkscape:connector-curvature="0"
         sodipodi:nodetypes="ccsccsscccccc" />
      <path
         style="opacity:1;fill:#ffffff;fill-opacity:1;stroke:#004488;stroke-width:3.86615133;stroke-linecap:round;stroke-linejoin:bevel;stroke-miterlimit:4;stroke-dasharray:none;stroke-dashoffset:0;stroke-opacity:1"
         d="m 1175.6882,-13.078943 h 39.8741 c 11.9253,0 16.8172,10.8854 21.5411,27.05153 l 13.5044,46.21608 c 4.2267,14.46496 -12.7352,27.05168 -28.5543,27.05168 h -52.8565 c -15.8191,0 -32.6853,-12.91447 -28.5544,-27.05168 l 13.5045,-46.21608 c 4.416,-15.11267 9.6073,-27.05153 21.5411,-27.05153 z"
         id="path4782"
         inkscape:connector-curvature="0"
         sodipodi:nodetypes="sssssssss" />
      <path
         style="opacity:1;fill:#ffffff;fill-opacity:1;stroke:#004488;stroke-width:3.80890775;stroke-linecap:round;stroke-linejoin:bevel;stroke-miterlimit:4;stroke-dasharray:none;stroke-dashoffset:0;stroke-opacity:1"
         d="m 1124.3207,38.330537 h 143.4437 c 15.8201,0 27.1999,14.57902 28.5562,32.58488 l 14.1471,187.813793 c 1.356,18.00106 -14.5328,32.58493 -32.5849,32.58493 h -163.6805 c -18.052,0 -33.9408,-14.58387 -32.5849,-32.58493 l 14.1471,-187.813793 c 1.3606,-18.06197 12.7354,-32.58488 28.5562,-32.58488 z"
         id="path4784"
         inkscape:connector-curvature="0"
         sodipodi:nodetypes="sssssssss" />
      <rect
         style="opacity:1;fill:#004488;fill-opacity:1;stroke:#004488;stroke-width:3.86615133;stroke-linecap:round;stroke-linejoin:bevel;stroke-miterlimit:4;stroke-dasharray:none;stroke-dashoffset:0;stroke-opacity:1"
         id="rect4786"
         width="179.7515"
         height="90.707924"
         x="1105.7507"
         y="90.758034"
         rx="9.6873951" />
      <path
         style="opacity:1;fill:#ffffff;fill-opacity:1;stroke:none;stroke-width:3.31842518;stroke-linecap:round;stroke-linejoin:bevel;stroke-miterlimit:4;stroke-dasharray:none;stroke-dashoffset:0;stroke-opacity:1"
         d="m 1362.272,43.790227 c 0,10.18152 -8.2537,18.43528 -18.4353,18.43528 -10.1815,0 -18.4352,-8.25376 -18.4352,-18.43528 0,-10.18153 14.4409,-18.18275 18.8141,-35.48161 3.868,17.42512 18.0564,25.30008 18.0564,35.48161 z"
         id="path4788"
         inkscape:connector-curvature="0"
         sodipodi:nodetypes="ssscs" />
    </g>
    <g
       id="g4726"
       transform="matrix(0.02847117,0,0,0.02847117,118.23087,50.307797)"
       inkscape:export-xdpi="300"
       inkscape:export-ydpi="300">
      <circle
         inkscape:export-ydpi="300"
         inkscape:export-xdpi="300"
         style="fill:#004488;fill-opacity:1;stroke:#000000;stroke-width:12.09448814;stroke-miterlimit:4;stroke-dasharray:none;stroke-opacity:1"
         id="circle4686"
         cx="1108.3401"
         cy="93.435654"
         r="295.71429" />
      <circle
         inkscape:export-ydpi="300"
         inkscape:export-xdpi="300"
         r="295.71429"
         cy="93.435654"
         cx="1108.3401"
         id="circle4688-8"
         style="fill:#004488;fill-opacity:1;stroke:#ffffff;stroke-width:6.42519712;stroke-miterlimit:4;stroke-dasharray:none;stroke-opacity:1" />
      <rect
         y="-111.30992"
         x="951.31641"
         height="405.45059"
         width="307.98651"
         id="rect4690"
         style="opacity:1;fill:#ffffff;fill-opacity:1;stroke:none;stroke-width:3.20176673;stroke-linecap:round;stroke-linejoin:bevel;stroke-miterlimit:4;stroke-dasharray:none;stroke-dashoffset:0;stroke-opacity:1" />
      <path
         inkscape:connector-curvature="0"
         id="path4692-8"
         d="M 974.70779,234.90066 H 1229.089"
         style="fill:none;stroke:#004488;stroke-width:4.97769022;stroke-linecap:butt;stroke-linejoin:miter;stroke-miterlimit:4;stroke-dasharray:none;stroke-opacity:1" />
      <path
         style="fill:none;stroke:#004488;stroke-width:4.97769022;stroke-linecap:butt;stroke-linejoin:miter;stroke-miterlimit:4;stroke-dasharray:none;stroke-opacity:1"
         d="M 974.70779,215.60364 H 1229.089"
         id="path4694-9"
         inkscape:connector-curvature="0" />
      <path
         style="fill:none;stroke:#004488;stroke-width:4.97769022;stroke-linecap:butt;stroke-linejoin:miter;stroke-miterlimit:4;stroke-dasharray:none;stroke-opacity:1"
         d="M 974.70779,196.30658 H 1229.089"
         id="path4696-7"
         inkscape:connector-curvature="0" />
      <path
         inkscape:connector-curvature="0"
         id="path4698-7"
         d="M 974.70779,177.00956 H 1229.089"
         style="fill:none;stroke:#004488;stroke-width:4.97769022;stroke-linecap:butt;stroke-linejoin:miter;stroke-miterlimit:4;stroke-dasharray:none;stroke-opacity:1" />
      <path
         style="fill:none;stroke:#004488;stroke-width:4.97769022;stroke-linecap:butt;stroke-linejoin:miter;stroke-miterlimit:4;stroke-dasharray:none;stroke-opacity:1"
         d="M 974.70779,157.71254 H 1229.089"
         id="path4700"
         inkscape:connector-curvature="0" />
      <path
         inkscape:connector-curvature="0"
         id="path4702-6"
         d="M 974.70779,138.41548 H 1229.089"
         style="fill:none;stroke:#004488;stroke-width:4.97769022;stroke-linecap:butt;stroke-linejoin:miter;stroke-miterlimit:4;stroke-dasharray:none;stroke-opacity:1" />
      <path
         inkscape:connector-curvature="0"
         id="path4704"
         d="M 974.70779,119.11846 H 1229.089"
         style="fill:none;stroke:#004488;stroke-width:4.97769022;stroke-linecap:butt;stroke-linejoin:miter;stroke-miterlimit:4;stroke-dasharray:none;stroke-opacity:1" />
      <path
         style="fill:none;stroke:#004488;stroke-width:4.97769022;stroke-linecap:butt;stroke-linejoin:miter;stroke-miterlimit:4;stroke-dasharray:none;stroke-opacity:1"
         d="M 974.70779,99.821485 H 1229.089"
         id="path4706"
         inkscape:connector-curvature="0" />
      <path
         style="fill:none;stroke:#004488;stroke-width:4.97769022;stroke-linecap:butt;stroke-linejoin:miter;stroke-miterlimit:4;stroke-dasharray:none;stroke-opacity:1"
         d="M 974.70779,80.524425 H 1229.089"
         id="path4708"
         inkscape:connector-curvature="0" />
      <path
         inkscape:connector-curvature="0"
         id="path4710"
         d="M 974.70779,61.227525 H 1229.089"
         style="fill:none;stroke:#004488;stroke-width:4.97769022;stroke-linecap:butt;stroke-linejoin:miter;stroke-miterlimit:4;stroke-dasharray:none;stroke-opacity:1" />
      <path
         inkscape:connector-curvature="0"
         id="path4712"
         d="M 974.70779,41.930605 H 1229.089"
         style="fill:none;stroke:#004488;stroke-width:4.97769022;stroke-linecap:butt;stroke-linejoin:miter;stroke-miterlimit:4;stroke-dasharray:none;stroke-opacity:1" />
      <path
         style="fill:none;stroke:#004488;stroke-width:4.97769022;stroke-linecap:butt;stroke-linejoin:miter;stroke-miterlimit:4;stroke-dasharray:none;stroke-opacity:1"
         d="M 974.70779,22.633695 H 1229.089"
         id="path4714"
         inkscape:connector-curvature="0" />
      <path
         inkscape:connector-curvature="0"
         id="path4716"
         d="M 983.69303,-23.588585 H 1158.7015"
         style="fill:none;stroke:#004488;stroke-width:5.24754238;stroke-linecap:butt;stroke-linejoin:miter;stroke-miterlimit:4;stroke-dasharray:none;stroke-opacity:1" />
      <path
         style="fill:none;stroke:#004488;stroke-width:5.24754238;stroke-linecap:butt;stroke-linejoin:miter;stroke-miterlimit:4;stroke-dasharray:none;stroke-opacity:1"
         d="M 983.69303,-38.794105 H 1158.7015"
         id="path4718"
         inkscape:connector-curvature="0" />
      <path
         style="fill:none;stroke:#004488;stroke-width:5.24754238;stroke-linecap:butt;stroke-linejoin:miter;stroke-miterlimit:4;stroke-dasharray:none;stroke-opacity:1"
         d="M 983.69303,-53.999635 H 1158.7015"
         id="path4720"
         inkscape:connector-curvature="0" />
      <path
         inkscape:connector-curvature="0"
         id="path4722"
         d="M 983.69303,-69.205155 H 1158.7015"
         style="fill:none;stroke:#004488;stroke-width:5.24754238;stroke-linecap:butt;stroke-linejoin:miter;stroke-miterlimit:4;stroke-dasharray:none;stroke-opacity:1" />
      <path
         inkscape:connector-curvature="0"
         id="path4724"
         d="M 974.70779,5.2664647 H 1229.089"
         style="fill:none;stroke:#004488;stroke-width:4.97769022;stroke-linecap:butt;stroke-linejoin:miter;stroke-miterlimit:4;stroke-dasharray:none;stroke-opacity:1" />
    </g>
    <g
       inkscape:export-ydpi="300"
       inkscape:export-xdpi="300"
       id="g2947"
       transform="matrix(0.02812647,0,0,0.02812647,55.91789,21.487273)">
      <g
         transform="translate(-265.80831,879.58388)"
         id="g2945">
        <circle
           r="295.71429"
           cy="184.38849"
           cx="841.80994"
           id="circle2931"
           style="fill:#004488;fill-opacity:1;stroke:#000000;stroke-width:12.09448814;stroke-miterlimit:4;stroke-dasharray:none;stroke-opacity:1"
           inkscape:export-xdpi="300"
           inkscape:export-ydpi="300" />
        <circle
           style="fill:#004488;fill-opacity:1;stroke:#ffffff;stroke-width:6.42519712;stroke-miterlimit:4;stroke-dasharray:none;stroke-opacity:1"
           id="circle2933"
           cx="841.80994"
           cy="184.38849"
           r="295.71429"
           inkscape:export-xdpi="300"
           inkscape:export-ydpi="300" />
        <path
           style="fill:#ffffff;fill-opacity:1;stroke:none;stroke-width:1.94004595;stroke-linecap:butt;stroke-linejoin:miter;stroke-miterlimit:4;stroke-dasharray:none;stroke-opacity:1"
           d="m 737.3287,-43.049705 -1.70697,20.769279 46.98,13.2559743 c 0,0 23.68255,5.67812 23.49154,29.3155797 -0.19102,23.63748 -13.04659,61.132 -13.04659,61.132 l 93.05284,-0.24133 c 0,0 -11.0753,-62.55061 -2.58644,-70.78078 8.48889,-8.2301397 14.39588,-14.1235997 14.39588,-14.1235997 l -4.6218,-53.0687033 -19.03956,-10.310899 -90.05979,0.35263 -14.37012,13.127849 z"
           id="path2935"
           inkscape:connector-curvature="0"
           sodipodi:nodetypes="cccsccccccccc" />
        <path
           style="fill:none;stroke:#ffffff;stroke-width:3.51890683;stroke-linecap:round;stroke-linejoin:bevel;stroke-miterlimit:4;stroke-dasharray:none;stroke-opacity:1"
           d="m 789.1413,-1.2911617 c 0,0 -9.92508,26.0830697 -18.25826,29.2697697 l 5.54552,3.05323 c 0,0 7.93982,-0.48346 18.45708,-29.1809497"
           id="path2937"
           inkscape:connector-curvature="0"
           sodipodi:nodetypes="cccc" />
        <path
           style="opacity:1;fill:#ffffff;fill-opacity:1;stroke:#004488;stroke-width:4.29775953;stroke-linecap:round;stroke-linejoin:bevel;stroke-miterlimit:4;stroke-dasharray:none;stroke-dashoffset:0;stroke-opacity:1"
           d="m 813.8179,49.237638 h 57.26087 c 17.12421,0 28.72037,10.37406 30.93362,28.03245 l 6.00253,47.891932 c 1.96668,15.69141 -15.18674,28.03259 -34.05104,28.03259 h -63.0312 c -18.86427,0 -35.97317,-12.69668 -34.05104,-28.03259 l 6.00256,-47.891932 c 2.12974,-16.99236 13.79643,-28.03245 30.9337,-28.03245 z"
           id="path2939"
           inkscape:connector-curvature="0"
           sodipodi:nodetypes="sssssssss" />
        <path
           style="opacity:1;fill:#ffffff;fill-opacity:1;stroke:#004488;stroke-width:3.99742222;stroke-linecap:round;stroke-linejoin:bevel;stroke-miterlimit:4;stroke-dasharray:none;stroke-dashoffset:0;stroke-opacity:1"
           d="m 780.11273,110.62167 h 125.41009 c 13.83129,0 23.78041,18.36694 24.9662,41.05106 l 12.3685,236.61132 c 1.18549,22.67803 -12.70579,41.05107 -28.48834,41.05107 h -143.1028 c -15.78254,0 -29.67381,-18.37304 -28.48833,-41.05107 l 12.36854,-236.61132 c 1.18948,-22.75483 11.13432,-41.05106 24.96614,-41.05106 z"
           id="path2941"
           inkscape:connector-curvature="0"
           sodipodi:nodetypes="sssssssss" />
        <rect
           style="opacity:1;fill:#004488;fill-opacity:1;stroke:#004488;stroke-width:3.39118576;stroke-linecap:round;stroke-linejoin:bevel;stroke-miterlimit:4;stroke-dasharray:none;stroke-dashoffset:0;stroke-opacity:1"
           id="rect2943"
           width="157.66862"
           height="79.564247"
           x="763.61847"
           y="294.50433"
           rx="8.4972763" />
      </g>
    </g>
    <g
       inkscape:export-ydpi="300"
       inkscape:export-xdpi="300"
       id="g2831"
       transform="matrix(0.02844072,0,0,0.02844072,16.293597,48.092834)">
      <circle
         inkscape:export-ydpi="300"
         inkscape:export-xdpi="300"
         style="fill:#004488;fill-opacity:1;stroke:#000000;stroke-width:12.09448814;stroke-miterlimit:4;stroke-dasharray:none;stroke-opacity:1"
         id="circle2815"
         cx="1304.8772"
         cy="117.60004"
         r="295.71429" />
      <circle
         inkscape:export-ydpi="300"
         inkscape:export-xdpi="300"
         r="295.71429"
         cy="117.60004"
         cx="1304.8772"
         id="circle2817"
         style="fill:#004488;fill-opacity:1;stroke:#ffffff;stroke-width:6.42519712;stroke-miterlimit:4;stroke-dasharray:none;stroke-opacity:1" />
      <path
         sodipodi:nodetypes="cccccsccccccccccacc"
         inkscape:connector-curvature="0"
         id="path2819"
         d="m 1552.5961,142.82822 -0.2351,78.02079 c 0,0 -39.0858,-8.27713 -45.7341,-11.56717 -7.2725,-2.45764 -34.4669,-16.79648 -37.551,-14.70864 -3.0838,2.0868 -37.9229,5.10947 -45.7105,2.6908 -3.894,-1.20903 -28.7961,-12.25527 -55.3026,-19.35961 -26.5065,-7.1043 -49.5794,-16.70683 -52.3606,-22.79864 -4.2975,-5.89077 0.7631,-12.61969 7.2037,-11.39085 6.4402,1.22827 53.3735,12.89764 72.0674,9.9623 15.8163,-2.5025 39.6367,0.2487 45.4315,-5.20614 -3.3591,-9.19949 -29.139,-4.89918 -32.8124,-5.79621 -6.1696,0.14211 -9.6242,-2.86726 -9.7244,-6.59267 -0.1009,-3.72506 -2.4856,-5.75883 14.8857,-9.8219 19.8679,-4.68646 28.7948,-4.30741 38.9277,-4.5482 14.6061,-0.65655 16.9084,5.10119 33.4227,10.53925 11.4681,6.74868 16.5,5.05175 28.7668,6.73542 11.8505,1.26788 11.7858,0.0265 17.6451,0.57218 7.0799,0.66138 21.0801,3.26948 21.0801,3.26948 z"
         style="fill:#ffffff;fill-opacity:1;stroke:none;stroke-width:4.45284319px;stroke-linecap:butt;stroke-linejoin:miter;stroke-opacity:1" />
      <path
         sodipodi:nodetypes="ccsccsscccccc"
         inkscape:connector-curvature="0"
         id="path2821"
         d="m 1107.6494,-71.147903 h 184.1766 c 0,0 36.4625,14.93897 50.0988,28.46518 5.9157,5.86807 12.5247,21.63354 12.5247,21.63354 h -23.9108 c 0,0 -10.2086,-9.54613 -16.4262,-12.4864 -10.4298,-4.93226 -22.2138,-6.66463 -33.6725,-8.00854 -16.2089,-1.90102 -48.9601,0 -48.9601,0 l -12.5247,28.46518 h -43.267 l -12.5247,-26.18797 h -58.9299 z"
         style="fill:#ffffff;fill-opacity:1;stroke:#004488;stroke-width:1.59404933px;stroke-linecap:butt;stroke-linejoin:miter;stroke-opacity:1" />
      <path
         sodipodi:nodetypes="sssssssss"
         inkscape:connector-curvature="0"
         id="path2823"
         d="m 1175.6882,-13.078943 h 39.8741 c 11.9253,0 16.8172,10.8854 21.5411,27.05153 l 13.5044,46.21608 c 4.2267,14.46496 -12.7352,27.05168 -28.5543,27.05168 h -52.8565 c -15.8191,0 -32.6853,-12.91447 -28.5544,-27.05168 l 13.5045,-46.21608 c 4.416,-15.11267 9.6073,-27.05153 21.5411,-27.05153 z"
         style="opacity:1;fill:#ffffff;fill-opacity:1;stroke:#004488;stroke-width:3.86615133;stroke-linecap:round;stroke-linejoin:bevel;stroke-miterlimit:4;stroke-dasharray:none;stroke-dashoffset:0;stroke-opacity:1" />
      <path
         sodipodi:nodetypes="sssssssss"
         inkscape:connector-curvature="0"
         id="path2825"
         d="m 1124.3207,38.330537 h 143.4437 c 15.8201,0 27.1999,14.57902 28.5562,32.58488 l 14.1471,187.813793 c 1.356,18.00106 -14.5328,32.58493 -32.5849,32.58493 h -163.6805 c -18.052,0 -33.9408,-14.58387 -32.5849,-32.58493 l 14.1471,-187.813793 c 1.3606,-18.06197 12.7354,-32.58488 28.5562,-32.58488 z"
         style="opacity:1;fill:#ffffff;fill-opacity:1;stroke:#004488;stroke-width:3.80890775;stroke-linecap:round;stroke-linejoin:bevel;stroke-miterlimit:4;stroke-dasharray:none;stroke-dashoffset:0;stroke-opacity:1" />
      <rect
         rx="9.6873951"
         y="90.758034"
         x="1105.7507"
         height="90.707924"
         width="179.7515"
         id="rect2827"
         style="opacity:1;fill:#004488;fill-opacity:1;stroke:#004488;stroke-width:3.86615133;stroke-linecap:round;stroke-linejoin:bevel;stroke-miterlimit:4;stroke-dasharray:none;stroke-dashoffset:0;stroke-opacity:1" />
      <path
         sodipodi:nodetypes="ssscs"
         inkscape:connector-curvature="0"
         id="path2829"
         d="m 1362.272,43.790227 c 0,10.18152 -8.2537,18.43528 -18.4353,18.43528 -10.1815,0 -18.4352,-8.25376 -18.4352,-18.43528 0,-10.18153 14.4409,-18.18275 18.8141,-35.48161 3.868,17.42512 18.0564,25.30008 18.0564,35.48161 z"
         style="opacity:1;fill:#ffffff;fill-opacity:1;stroke:none;stroke-width:3.31842518;stroke-linecap:round;stroke-linejoin:bevel;stroke-miterlimit:4;stroke-dasharray:none;stroke-dashoffset:0;stroke-opacity:1" />
    </g>
    <text
       xml:space="preserve"
       style="font-style:normal;font-weight:normal;font-size:10.58333302px;line-height:1.25;font-family:sans-serif;letter-spacing:0px;word-spacing:0px;fill:#000000;fill-opacity:1;stroke:none;stroke-width:0.15875001;stroke-miterlimit:4;stroke-dasharray:none;stroke-opacity:1"
       x="104.61059"
       y="129.03568"
       id="text2892"
       inkscape:export-xdpi="300"
       inkscape:export-ydpi="300"><tspan
         sodipodi:role="line"
         id="tspan2890"
         x="104.61059"
         y="129.03568"
         style="font-size:9.87777805px;fill:#000000;fill-opacity:1;stroke:none;stroke-width:0.15875001;stroke-miterlimit:4;stroke-dasharray:none;stroke-opacity:1">PT 3.0.30</tspan></text>
  </g>
</svg>
